<svg width="24" height="24" viewBox="0 0 24 24" fill="none" xmlns="http://www.w3.org/2000/svg">
<rect width="24" height="24" rx="12" fill="#F9FAFA"/>
<g clip-path="url(#clip0_3505_55283)">
<path d="M18.665 15.2802V17.2802C18.6657 17.4659 18.6277 17.6497 18.5533 17.8198C18.479 17.9899 18.3699 18.1426 18.233 18.2681C18.0962 18.3937 17.9347 18.4892 17.7588 18.5487C17.5829 18.6082 17.3966 18.6303 17.2117 18.6136C15.1602 18.3907 13.1897 17.6897 11.4583 16.5669C9.84755 15.5433 8.48189 14.1777 7.45833 12.5669C6.33165 10.8277 5.63049 8.84756 5.41166 6.78689C5.395 6.60254 5.41691 6.41673 5.47599 6.24131C5.53508 6.06589 5.63004 5.90469 5.75484 5.76797C5.87964 5.63126 6.03153 5.52203 6.20086 5.44724C6.37018 5.37245 6.55322 5.33374 6.73833 5.33356H8.73833C9.06187 5.33038 9.37552 5.44495 9.62084 5.65592C9.86615 5.86689 10.0264 6.15986 10.0717 6.48023C10.1561 7.12027 10.3126 7.74871 10.5383 8.35356C10.628 8.59218 10.6474 8.8515 10.5943 9.10081C10.5411 9.35012 10.4176 9.57897 10.2383 9.76023L9.39166 10.6069C10.3407 12.2759 11.7226 13.6579 13.3917 14.6069L14.2383 13.7602C14.4196 13.581 14.6484 13.4575 14.8977 13.4043C15.1471 13.3511 15.4064 13.3705 15.645 13.4602C16.2498 13.6859 16.8783 13.8425 17.5183 13.9269C17.8422 13.9726 18.1379 14.1357 18.3494 14.3852C18.5608 14.6348 18.6731 14.9533 18.665 15.2802Z" stroke="#879693" stroke-linecap="round" stroke-linejoin="round"/>
</g>
<defs>
<clipPath id="clip0_3505_55283">
<rect width="16" height="16" fill="white" transform="translate(4 4)"/>
</clipPath>
</defs>
</svg>
