<svg width="519" height="80" viewBox="0 0 519 80" fill="none" xmlns="http://www.w3.org/2000/svg">
<rect width="519" height="80" fill="white"/>
<rect width="438" height="4" transform="translate(43 38)" fill="#EDEFEF"/>
<circle cx="32" cy="40" r="16" fill="#00644F"/>
<path d="M33.6235 35.34V45H32.4195V36.614L29.7595 38.196V36.922L31.8035 35.648C32.1815 35.41 32.5175 35.34 32.8535 35.34H33.6235Z" fill="white"/>
<rect x="244" y="24" width="32" height="32" rx="16" fill="#F9FAFA"/>
<path d="M258.529 44.02H263.261V45H256.779V44.314L260.279 40.744C261.413 39.582 261.959 38.882 261.959 37.944C261.959 36.95 261.385 36.096 260.223 36.096C258.977 36.096 258.375 36.866 258.235 38.224L258.221 38.364H257.017L257.031 38.224C257.227 36.208 258.431 35.144 260.363 35.144C262.337 35.144 263.303 36.362 263.303 37.804C263.303 39.12 262.589 40.016 260.951 41.626L258.529 44.02Z" fill="#535F5D"/>
<rect x="471" y="24" width="32" height="32" rx="16" fill="#F9FAFA"/>
<path d="M488.483 39.862C489.673 40.198 490.415 41.052 490.415 42.312C490.415 44.118 488.777 45.196 486.915 45.196C485.081 45.196 483.793 44.37 483.583 42.284L483.569 42.144H484.773L484.787 42.284C484.927 43.642 485.851 44.244 487.027 44.244C488.217 44.244 489.071 43.558 489.071 42.382C489.071 41.248 488.343 40.604 486.775 40.604H486.537V39.624H486.775C487.923 39.624 488.847 38.952 488.847 37.734C488.847 36.768 488.161 36.096 487.139 36.096C486.117 36.096 485.291 36.712 485.165 37.986L485.151 38.126H483.947L483.961 37.986C484.143 36.236 485.333 35.144 487.293 35.144C489.071 35.144 490.191 36.138 490.191 37.594C490.191 38.7 489.491 39.568 488.483 39.862Z" fill="#535F5D"/>
</svg>
