<svg width="20" height="20" viewBox="0 0 20 20" fill="none" xmlns="http://www.w3.org/2000/svg">
<g id="dots vertical">
<g id="icon">
<path d="M11.6654 5.00016C11.6654 5.92064 10.9192 6.66683 9.9987 6.66683C9.07822 6.66683 8.33203 5.92064 8.33203 5.00016C8.33203 4.07969 9.07822 3.3335 9.9987 3.3335C10.9192 3.3335 11.6654 4.07969 11.6654 5.00016Z" fill="#858D9D"/>
<path d="M11.6654 10.0002C11.6654 10.9206 10.9192 11.6668 9.9987 11.6668C9.07822 11.6668 8.33203 10.9206 8.33203 10.0002C8.33203 9.07969 9.07822 8.3335 9.9987 8.3335C10.9192 8.3335 11.6654 9.07969 11.6654 10.0002Z" fill="#858D9D"/>
<path d="M9.9987 16.6668C10.9192 16.6668 11.6654 15.9206 11.6654 15.0002C11.6654 14.0797 10.9192 13.3335 9.9987 13.3335C9.07822 13.3335 8.33203 14.0797 8.33203 15.0002C8.33203 15.9206 9.07822 16.6668 9.9987 16.6668Z" fill="#858D9D"/>
</g>
</g>
</svg>
