<svg width="54" height="54" viewBox="0 0 54 54" fill="none" xmlns="http://www.w3.org/2000/svg">
<rect width="54" height="54" rx="27" fill="#F9FAFA"/>
<path d="M35 36V34C35 32.9391 34.5786 31.9217 33.8284 31.1716C33.0783 30.4214 32.0609 30 31 30H23C21.9391 30 20.9217 30.4214 20.1716 31.1716C19.4214 31.9217 19 32.9391 19 34V36" stroke="#535F5D" stroke-width="2" stroke-linecap="round" stroke-linejoin="round"/>
<path d="M27 26C29.2091 26 31 24.2091 31 22C31 19.7909 29.2091 18 27 18C24.7909 18 23 19.7909 23 22C23 24.2091 24.7909 26 27 26Z" stroke="#535F5D" stroke-width="2" stroke-linecap="round" stroke-linejoin="round"/>
</svg>
